<svg width="32" height="32" viewBox="0 0 32 32" fill="none" xmlns="http://www.w3.org/2000/svg">
<g clip-path="url(#clip0_8794_35463)">
<path d="M22 10L18 5.30333C17.3335 4.65146 15 5.06938 15 6.37313V25.627C15 26.9307 17.3335 27.3485 18 26.6966L22 22V10Z" fill="currentColor"/>
<path d="M27 10H24V22H27V10Z" fill="currentColor"/>
<path d="M10.1674 15.9924L12.7984 13.3783C13.1157 13.063 13.1157 12.5519 12.7984 12.2365C12.481 11.9212 11.9666 11.9212 11.6492 12.2365L9.01819 14.8506L6.38722 12.2365C6.06983 11.9212 5.55542 11.9212 5.23804 12.2365C4.92065 12.5519 4.92065 13.063 5.23804 13.3783L7.86901 15.9924L5.23804 18.6065C4.92065 18.9219 4.92065 19.433 5.23804 19.7484C5.39647 19.9058 5.60468 19.985 5.81237 19.985C6.02007 19.985 6.22827 19.9063 6.38671 19.7484L9.01769 17.1342L11.6487 19.7484C11.8071 19.9058 12.0153 19.985 12.223 19.985C12.4307 19.985 12.6389 19.9063 12.7973 19.7484C13.1147 19.433 13.1147 18.9219 12.7973 18.6065L10.1674 15.9924Z" fill="currentColor"/>
</g>
</svg>
